<svg xmlns="http://www.w3.org/2000/svg" fill="none" viewBox="0 0 48 48">
    <g transform="matrix(1,0,0,1,0,0)">
        <path fill="#ACB4C9" fill-rule="evenodd"
            d="M35.9152 15.3743C41.2698 16.3047 45 20.3053 45 26C45 32.3285 40.3933 36.5648 34.07 36.8204C31.4114 36.9278 28.0996 37 24 37C19.9004 37 16.5886 36.9278 13.93 36.8204C7.60674 36.5648 3 32.3285 3 26C3 20.3053 6.73021 16.3047 12.0848 15.3743C12.7257 9.33698 16.9584 5.04741 23.2827 5.00252C23.517 5.00086 23.7561 5 24 5C24.244 5 24.483 5.00086 24.7173 5.00252C31.0416 5.04741 35.2743 9.33698 35.9152 15.3743Z"
            clip-rule="evenodd"></path>
        <path fill="#576684" fill-rule="evenodd"
            d="M27.7672 32.513L27.1411 40.5536C27.0491 41.7351 26.4787 42.7917 25.302 42.9322C24.9439 42.975 24.5143 43.002 24.0001 43.002C23.4859 43.002 23.0563 42.975 22.6982 42.9323C21.5214 42.7917 20.951 41.735 20.8589 40.5535L20.2327 32.5125C18.5665 32.4811 17.2299 32.4301 16.1645 32.372C14.2033 32.2649 13.3871 30.4002 14.6678 28.911C15.4186 28.0379 16.3878 26.9665 17.6278 25.6812C19.7815 23.4489 21.3903 22.1845 22.4544 21.4799C23.4215 20.8396 24.6053 20.8395 25.5725 21.4798C26.6367 22.1843 28.2455 23.4487 30.399 25.6812C31.6384 26.9661 32.6073 28.0373 33.358 28.9102C34.6389 30.3997 33.8226 32.265 31.861 32.372C30.7902 32.4305 29.4454 32.4817 27.7672 32.513Z"
            clip-rule="evenodd"></path>
    </g>
</svg>